<?xml version="1.0" standalone="no"?>
<!DOCTYPE svg PUBLIC "-//W3C//DTD SVG 20010904//EN"
 "http://www.w3.org/TR/2001/REC-SVG-20010904/DTD/svg10.dtd">
<svg version="1.0" xmlns="http://www.w3.org/2000/svg"
 width="512.000000pt" height="512.000000pt" viewBox="0 0 512.000000 512.000000"
 preserveAspectRatio="xMidYMid meet">
<metadata>
Created by potrace 1.11, written by Peter Selinger 2001-2013
</metadata>
<g transform="translate(0.000000,512.000000) scale(0.100000,-0.100000)"
fill="#000000" stroke="none">
<path d="M3433 4427 c-9 -11 -29 -47 -118 -212 -21 -38 -84 -153 -140 -255
-56 -102 -104 -192 -108 -200 -4 -8 -15 -28 -25 -45 -10 -16 -42 -75 -72 -130
-29 -55 -56 -104 -60 -110 -4 -5 -29 -50 -55 -100 -27 -49 -67 -124 -90 -165
-23 -41 -58 -104 -77 -140 -20 -36 -47 -85 -60 -110 -14 -25 -93 -169 -175
-320 -83 -151 -162 -295 -175 -320 -56 -101 -324 -590 -356 -650 -20 -36 -95
-173 -167 -305 -243 -443 -285 -521 -285 -530 0 -8 233 -140 268 -153 4 -1 16
15 27 35 11 21 47 88 81 148 33 61 77 139 96 175 51 94 261 477 290 530 14 25
107 196 208 380 100 184 194 355 208 380 13 25 43 79 65 120 22 41 49 89 59
105 10 17 21 37 25 45 4 8 54 101 111 205 57 105 120 219 139 255 20 36 48 88
63 115 15 28 92 167 170 310 79 143 161 294 183 335 22 41 47 89 57 105 21 35
63 113 115 210 21 39 48 89 62 111 l24 42 -68 37 c-192 106 -211 115 -220 102z"/>
<path d="M735 3180 l-620 -620 622 -622 623 -623 113 113 114 114 -509 509
-510 509 510 509 509 509 -111 111 c-61 61 -114 111 -116 111 -3 0 -284 -279
-625 -620z"/>
<path d="M3644 3689 l-111 -111 509 -509 509 -509 -509 -509 -509 -510 114
-113 113 -113 623 623 622 622 -620 620 c-341 341 -622 620 -625 620 -3 0 -55
-50 -116 -111z"/>
</g>
</svg>
